<svg width="364" height="500" viewBox="0 0 364 500" fill="none" xmlns="http://www.w3.org/2000/svg">
<g clip-path="url(#clip0_331_1184)">
<path d="M53.1741 158.79C53.1741 165.772 58.9811 171.432 66.1444 171.432C73.3077 171.432 79.1147 165.772 79.1147 158.79C79.1147 151.807 73.3077 146.147 66.1444 146.147C58.9811 146.147 53.1741 151.807 53.1741 158.79Z" fill="#7B91F7"/>
<path d="M330.738 171.432C330.738 178.414 336.545 184.075 343.708 184.075C350.871 184.075 356.678 178.414 356.678 171.432C356.678 164.45 350.871 158.79 343.708 158.79C336.545 158.79 330.738 164.45 330.738 171.432Z" fill="#7B91F7"/>
<path d="M40.2037 264.986C40.2037 271.969 46.0108 277.629 53.1741 277.629C60.3374 277.629 66.1444 271.969 66.1444 264.986C66.1444 258.004 60.3374 252.344 53.1741 252.344C46.0108 252.344 40.2037 258.004 40.2037 264.986Z" fill="#7B91F7"/>
<path d="M348.896 328.199C348.896 335.181 354.703 340.841 361.866 340.841C369.03 340.841 374.836 335.181 374.836 328.199C374.836 321.217 369.03 315.556 361.866 315.556C354.703 315.556 348.896 321.217 348.896 328.199Z" fill="#7B91F7"/>
<path d="M164.718 12.6424C164.718 19.6247 170.525 25.2849 177.688 25.2849C184.852 25.2849 190.659 19.6247 190.659 12.6424C190.659 5.66019 184.852 -4.60084e-05 177.688 -4.72608e-05C170.525 -4.85133e-05 164.718 5.66018 164.718 12.6424Z" fill="#7B91F7"/>
<path d="M304.797 401.525C304.797 408.508 310.604 414.168 317.767 414.168C324.931 414.168 330.737 408.508 330.737 401.525C330.737 394.543 324.931 388.883 317.767 388.883C310.604 388.883 304.797 394.543 304.797 401.525Z" fill="#7B91F7"/>
<path d="M408.04 398.491C408.04 405.473 413.847 411.134 421.011 411.134C428.174 411.134 433.981 405.473 433.981 398.491C433.981 391.509 428.174 385.849 421.011 385.849C413.847 385.849 408.04 391.509 408.04 398.491Z" fill="#7B91F7"/>
<path d="M221.787 401.525C221.787 408.508 227.594 414.168 234.758 414.168C241.921 414.168 247.728 408.508 247.728 401.525C247.728 394.543 241.921 388.883 234.758 388.883C227.594 388.883 221.787 394.543 221.787 401.525Z" fill="#7B91F7"/>
<path d="M138.778 158.79C138.778 165.772 144.585 171.432 151.748 171.432C158.911 171.432 164.718 165.772 164.718 158.79C164.718 151.807 158.911 146.147 151.748 146.147C144.585 146.147 138.778 151.807 138.778 158.79Z" fill="#7B91F7"/>
<path d="M176.651 295.328C176.651 302.311 182.458 307.971 189.621 307.971C196.784 307.971 202.591 302.311 202.591 295.328C202.591 288.346 196.784 282.686 189.621 282.686C182.458 282.686 176.651 288.346 176.651 295.328Z" fill="#7B91F7"/>
<path d="M138.778 401.525C138.778 408.508 144.585 414.168 151.748 414.168C158.911 414.168 164.718 408.508 164.718 401.525C164.718 394.543 158.911 388.883 151.748 388.883C144.585 388.883 138.778 394.543 138.778 401.525Z" fill="#7B91F7"/>
<path d="M396.108 314.039C396.108 328.004 407.722 339.324 422.048 339.324C436.375 339.324 447.989 328.004 447.989 314.039C447.989 300.075 436.375 288.754 422.048 288.754C407.722 288.754 396.108 300.075 396.108 314.039Z" fill="#7B91F7"/>
<path d="M348.896 462.715C348.896 476.68 360.51 488 374.836 488C389.163 488 400.777 476.68 400.777 462.715C400.777 448.751 389.163 437.43 374.836 437.43C360.51 437.43 348.896 448.751 348.896 462.715Z" fill="#7B91F7"/>
<path d="M40.2037 442.487C40.2037 456.451 51.8178 467.772 66.1443 467.772C80.4709 467.772 92.0849 456.451 92.085 442.487C92.085 428.522 80.4709 417.202 66.1443 417.202C51.8178 417.202 40.2037 428.522 40.2037 442.487Z" fill="#7B91F7"/>
<path d="M278.856 247.287C278.856 261.252 290.47 272.572 304.797 272.572C319.124 272.572 330.738 261.252 330.738 247.287C330.738 233.323 319.124 222.002 304.797 222.002C290.47 222.002 278.856 233.323 278.856 247.287Z" fill="#7B91F7"/>
<path d="M209.336 339.324C209.336 353.289 220.95 364.609 235.276 364.609C249.603 364.609 261.217 353.289 261.217 339.324C261.217 325.36 249.603 314.039 235.276 314.039C220.95 314.039 209.336 325.36 209.336 339.324Z" fill="#7B91F7"/>
<path d="M370.167 133.505C370.167 147.469 381.781 158.79 396.108 158.79C410.434 158.79 422.048 147.469 422.048 133.505C422.048 119.54 410.434 108.22 396.108 108.22C381.781 108.22 370.167 119.54 370.167 133.505Z" fill="#7B91F7"/>
<path d="M202.591 146.147C202.591 160.112 214.205 171.432 228.532 171.432C242.858 171.432 254.472 160.112 254.472 146.147C254.472 132.183 242.858 120.862 228.532 120.862C214.205 120.862 202.591 132.183 202.591 146.147Z" fill="#7B91F7"/>
<path d="M86.8969 75.3492C86.8969 89.3137 98.5108 100.634 112.837 100.634C127.164 100.634 138.778 89.3137 138.778 75.3492C138.778 61.3847 127.164 50.0642 112.837 50.0642C98.5108 50.0642 86.8969 61.3847 86.8969 75.3492Z" fill="#7B91F7"/>
<path d="M112.134 232.931C112.134 246.896 123.748 258.216 138.075 258.216C152.401 258.216 164.015 246.896 164.015 232.931C164.015 218.967 152.401 207.646 138.075 207.646C123.748 207.646 112.134 218.967 112.134 232.931Z" fill="#7B91F7"/>
<path d="M6.99987 333.256C6.99986 347.22 18.6138 358.541 32.9404 358.541C47.267 358.541 58.8809 347.22 58.8809 333.256C58.8809 319.291 47.267 307.971 32.9404 307.971C18.6138 307.971 6.99987 319.291 6.99987 333.256Z" fill="#7B91F7"/>
<path d="M261.217 75.3492C261.217 89.3137 272.831 100.634 287.157 100.634C301.484 100.634 313.098 89.3137 313.098 75.3492C313.098 61.3847 301.484 50.0642 287.157 50.0642C272.831 50.0642 261.217 61.3847 261.217 75.3492Z" fill="#7B91F7"/>
<path d="M437.613 222.002C437.613 224.795 439.935 227.059 442.801 227.059C445.666 227.059 447.989 224.795 447.989 222.002C447.989 219.209 445.666 216.945 442.801 216.945C439.935 216.945 437.613 219.209 437.613 222.002Z" fill="#7B91F7"/>
<path d="M238.908 462.715C238.908 465.508 241.231 467.772 244.096 467.772C246.961 467.772 249.284 465.508 249.284 462.715C249.284 459.922 246.961 457.658 244.096 457.658C241.231 457.658 238.908 459.922 238.908 462.715Z" fill="#7B91F7"/>
<path d="M126.326 120.862C126.326 123.655 128.649 125.919 131.514 125.919C134.38 125.919 136.703 123.655 136.703 120.862C136.703 118.069 134.38 115.805 131.514 115.805C128.649 115.805 126.326 118.069 126.326 120.862Z" fill="#7B91F7"/>
<path d="M126.326 323.142C126.326 325.935 128.649 328.199 131.514 328.199C134.38 328.199 136.703 325.935 136.703 323.142C136.703 320.349 134.38 318.085 131.514 318.085C128.649 318.085 126.326 320.349 126.326 323.142Z" fill="#7B91F7"/>
<path d="M22.5643 222.002C22.5643 224.795 24.887 227.059 27.7523 227.059C30.6176 227.059 32.9404 224.795 32.9404 222.002C32.9404 219.209 30.6176 216.945 27.7523 216.945C24.887 216.945 22.5643 219.209 22.5643 222.002Z" fill="#7B91F7"/>
<path d="M164.718 12.6425C164.718 19.6247 170.525 25.285 177.688 25.285C184.852 25.285 190.659 19.6247 190.659 12.6425C190.659 5.66023 184.852 -1.01532e-06 177.688 -2.26779e-06C170.525 -3.52026e-06 164.718 5.66023 164.718 12.6425Z" fill="#A9B8FF"/>
<path d="M238.907 462.714C238.907 465.507 241.23 467.771 244.095 467.771C246.96 467.771 249.283 465.507 249.283 462.714C249.283 459.921 246.96 457.657 244.095 457.657C241.23 457.657 238.907 459.921 238.907 462.714Z" fill="#A9B8FF"/>
<path d="M138.777 158.79C138.777 165.772 144.584 171.432 151.748 171.432C158.911 171.432 164.718 165.772 164.718 158.79C164.718 151.808 158.911 146.147 151.748 146.147C144.584 146.147 138.777 151.808 138.777 158.79Z" fill="#A9B8FF"/>
<path d="M209.336 339.323C209.336 353.288 220.95 364.608 235.277 364.608C249.603 364.608 261.217 353.288 261.217 339.323C261.217 325.359 249.603 314.038 235.277 314.038C220.95 314.038 209.336 325.359 209.336 339.323Z" fill="#A9B8FF"/>
<path d="M53.3038 265.289L138.562 233.72L111.367 74.4367M111.367 74.4367L287.028 75.1543M111.367 74.4367L88.5828 116.769L65.7983 159.101" stroke="#7B91F7" stroke-width="2"/>
<path d="M396.54 132.554L422.264 314.797" stroke="#A9B8FF" stroke-width="2"/>
</g>
<defs>
<clipPath id="clip0_331_1184">
<rect width="364" height="500" fill="white"/>
</clipPath>
</defs>
</svg>
